<svg xmlns="http://www.w3.org/2000/svg" width="432.016" height="497.83" viewBox="0 0 432.016 497.83">
  <g id="그룹_652" data-name="그룹 652" opacity="0.1">
    <g id="그룹_621" data-name="그룹 621">
      <path id="패스_3984" data-name="패스 3984" d="M222.821,241.109A299.844,299.844,0,0,0,410.029,449.321,299.9,299.9,0,0,0,597.192,241.313L410.029,165.37Z" transform="translate(-194.032 24.719)" fill="#00204a"/>
      <path id="패스_3985" data-name="패스 3985" d="M609.4,358.42a301.156,301.156,0,0,0,4.2-49.94V135.3H221.236V308.48A300.918,300.918,0,0,0,225.4,358.2l192.026-77.687Z" transform="translate(-201.421 -115.47)" fill="#00204a"/>
      <path id="패스_3986" data-name="패스 3986" d="M217.736,131.794V322.206c0,137.364,86.6,259.929,215.515,307.237l.481.181.493-.181c128.911-47.307,215.526-169.872,215.526-307.237V131.794Zm19.815,19.827H629.914V324.805a301.132,301.132,0,0,1-4.2,49.94l-191.98-77.907L241.712,374.524a300.944,300.944,0,0,1-4.161-49.719ZM433.733,605.835A299.844,299.844,0,0,1,246.525,397.623l187.208-75.739L620.9,397.827A299.9,299.9,0,0,1,433.733,605.835Z" transform="translate(-217.736 -131.794)" fill="#fff"/>
    </g>
    <g id="그룹_622" data-name="그룹 622" transform="translate(57.223 46.985)">
      <rect id="사각형_264" data-name="사각형 264" width="28.247" height="20.837" transform="translate(150.077)" fill="#fff"/>
      <rect id="사각형_265" data-name="사각형 265" width="28.247" height="64.352" transform="translate(150.077 34.423)" fill="#fff"/>
      <path id="패스_3987" data-name="패스 3987" d="M301.613,175.294H256.091v-35.2H227.844v98.776h28.247V196.147h45.522v42.721h28.241V140.093H301.613Z" transform="translate(-227.844 -140.093)" fill="#fff"/>
      <path id="패스_3988" data-name="패스 3988" d="M267.2,140.093v20.858h33.423v77.918h28.235V160.951h33.979V140.093Z" transform="translate(-44.381 -140.093)" fill="#fff"/>
    </g>
    <g id="그룹_631" data-name="그룹 631" transform="translate(173.651 410.576)">
      <g id="그룹_624" data-name="그룹 624">
        <g id="그룹_623" data-name="그룹 623">
          <path id="패스_3989" data-name="패스 3989" d="M260.856,230.182c-1.313-.079-3.51-.119-5.775-.119-2.412,0-4.608.04-5.928.119a.932.932,0,0,1-.725-.844,1.354,1.354,0,0,1,.385-1.274l1.715-.2c1.421-.125,1.636-.136,1.636-3.21V212.009c0-2.6-.158-2.763-1.41-2.938l-1.687-.244a1.2,1.2,0,0,1-.628-1.008,1.334,1.334,0,0,1,.357-1.087c1.5-.295,3.153-.674,4.846-1.161.889-.272,1.715-.634,2.315-.883a3.281,3.281,0,0,1,1.064-.374.951.951,0,0,1,.923.759c-.062,1.008-.1,2.774-.1,4.693v14.89c0,3.074.221,3.085,1.642,3.21l1.5.119a1.268,1.268,0,0,1,.595,1.353.936.936,0,0,1-.583.809l-.073.034Z" transform="translate(-248.409 -204.315)" fill="#fff"/>
        </g>
      </g>
      <g id="그룹_626" data-name="그룹 626" transform="translate(19.552 0.153)">
        <g id="그룹_625" data-name="그룹 625">
          <path id="패스_3990" data-name="패스 3990" d="M252.921,232.219a1.078,1.078,0,0,1-.611-.883,1.23,1.23,0,0,1,.356-1.1c6.579-1.744,10.711-7.654,10.711-15.139,0-3.255-.923-8.124-3.47-8.124-1.483,0-2.287,2.117-2.287,4.1,0,2.859,1.053,6.114,3.351,6.562a5.693,5.693,0,0,0,.957.062,1.2,1.2,0,0,1,.64,1.285,5.321,5.321,0,0,1-4.054,1.568c-3.731,0-6.652-3.216-6.652-7.309a8.539,8.539,0,0,1,8.56-8.894c5.4,0,9.161,4.274,9.161,10.366a16.634,16.634,0,0,1-5.2,12.059c-3.023,2.955-7.983,5.361-11.283,5.486H253Z" transform="translate(-251.862 -204.342)" fill="#fff"/>
        </g>
      </g>
      <g id="그룹_628" data-name="그룹 628" transform="translate(42.402 0.566)">
        <g id="그룹_627" data-name="그룹 627">
          <path id="패스_3991" data-name="패스 3991" d="M260.427,232a1.97,1.97,0,0,1-1.97-1.591l9.709-17.913a8.036,8.036,0,0,0,1.155-2.848c0-.175-.413-.2-.646-.2h-7.784c-1.981,0-2.2.187-2.966,1.67a1.029,1.029,0,0,1-.838.4,1.274,1.274,0,0,1-1.189-.725c.515-1.8.923-3.736,1.229-5.146l.272-1.234.362.023c1.206.079,2.084.113,4.382.113h7.043c2.6,0,4.869-.045,5.254-.107a.97.97,0,0,1,.821,1.109c-.923,1.484-2.032,3.442-3.68,6.5l-10.672,19.888-.2.045Z" transform="translate(-255.898 -204.415)" fill="#fff"/>
        </g>
      </g>
      <g id="그룹_630" data-name="그룹 630" transform="translate(65.92 0.566)">
        <g id="그룹_629" data-name="그룹 629">
          <path id="패스_3992" data-name="패스 3992" d="M264.576,232a1.965,1.965,0,0,1-1.981-1.591l9.7-17.913a8.019,8.019,0,0,0,1.166-2.848c0-.175-.4-.2-.651-.2h-7.784c-1.976,0-2.2.187-2.95,1.67a1.064,1.064,0,0,1-.849.4,1.236,1.236,0,0,1-1.177-.725c.5-1.8.912-3.736,1.223-5.146l.266-1.234.356.023c1.217.079,2.084.113,4.382.113h7.054c2.6,0,4.857-.045,5.248-.107a.966.966,0,0,1,.815,1.109c-.911,1.484-2.032,3.442-3.68,6.5l-10.666,19.888-.2.045Z" transform="translate(-260.052 -204.415)" fill="#fff"/>
        </g>
      </g>
    </g>
    <g id="그룹_651" data-name="그룹 651" transform="translate(122.056 214.592)">
      <g id="그룹_632" data-name="그룹 632" transform="translate(0 84.786)">
        <path id="패스_3993" data-name="패스 3993" d="M333.236,284.429A26.357,26.357,0,0,1,312.4,274.42H239.3V184.674h8.826V265.6H317.1l1.3,2.032a17.808,17.808,0,0,0,29.689,0l1.308-2.032h68.968V184.674h8.826V274.42H354.07A26.347,26.347,0,0,1,333.236,284.429Z" transform="translate(-239.295 -184.674)" fill="#fff"/>
      </g>
      <g id="그룹_633" data-name="그룹 633" transform="translate(17.109)">
        <path id="패스_3994" data-name="패스 3994" d="M380.384,241.621a22.057,22.057,0,0,1-11.985-3.363l21.847-6.443a1.432,1.432,0,0,0-.5-2.8l-38.385,2.395c-.068-.125-.13-.243-.187-.368l30.986-22.867a1.444,1.444,0,0,0,.391-1.88,1.474,1.474,0,0,0-1.823-.6L344.8,221.382l21.672-32.667a1.433,1.433,0,0,0-.26-1.9,1.456,1.456,0,0,0-1.919.062L335.89,213.9l9.205-38.1a1.436,1.436,0,0,0-2.684-.974l-17.449,35.107-4.387-38.962a1.439,1.439,0,0,0-2.859,0l-4.382,38.962-17.449-35.107a1.429,1.429,0,0,0-1.778-.719,1.448,1.448,0,0,0-.9,1.693l9.2,38.1L274,186.881a1.436,1.436,0,0,0-2.185,1.834l21.689,32.667-35.939-15.688a1.439,1.439,0,0,0-1.427,2.48l30.985,22.867c-.062.125-.125.244-.181.368l-38.385-2.395a1.43,1.43,0,0,0-.493,2.8l21.831,6.443a22.038,22.038,0,0,1-11.979,3.363h-15.6V327.71h15.6a28.08,28.08,0,0,0,15.269-4.348,39.5,39.5,0,0,1,21.593-6.075c12.416.017,18.5,5.129,24.582,9.432,5.894-4.688,11.782-9.4,24.446-9.4a39.1,39.1,0,0,1,21.3,6.08,28.03,28.03,0,0,0,15.275,4.359h15.6V241.621Zm-61.235-25.879a30.076,30.076,0,0,1,26.292,15.512c-10.531-.419-19.883,2.819-26.292,7.864-6.42-5.016-15.705-8.26-26.292-7.869A30.1,30.1,0,0,1,319.149,215.743Zm70.887,106.073h-9.652a21.98,21.98,0,0,1-12-3.391,45.176,45.176,0,0,0-24.571-7.06c-9.375,0-18.117,2.819-24.639,7.909-6.432-5.033-15.286-7.915-24.491-7.943a45.391,45.391,0,0,0-24.758,7.06,22.054,22.054,0,0,1-12,3.385h-9.658v-74.2h9.658a28.134,28.134,0,0,0,15.269-4.354,39.893,39.893,0,0,1,21.593-6.086c12.478.034,18.473,5.022,24.384,9.41,5.894-4.422,11.844-9.376,24.463-9.41a39.721,39.721,0,0,1,21.48,6.086,28.124,28.124,0,0,0,15.275,4.354h9.652Z" transform="translate(-242.317 -169.698)" fill="#fff"/>
      </g>
      <g id="그룹_650" data-name="그룹 650" transform="translate(41.183 86.558)">
        <g id="그룹_635" data-name="그룹 635" transform="translate(24.207)">
          <g id="그룹_634" data-name="그룹 634">
            <path id="패스_3995" data-name="패스 3995" d="M264.416,202.991c-1.342-.062-3.776-.079-5.865-.079h-3.408c-1.166,0-2.435.017-4,.079a.755.755,0,0,1-.294-.6A.668.668,0,0,1,251,201.9l1.008-.147c1.053-.147,1.234-.249,1.234-2.78v-9.964c0-2.474-.158-2.661-1.234-2.8l-.73-.119a.591.591,0,0,1-.266-.555A.605.605,0,0,1,251.3,185c1.37.045,2.621.068,3.844.068s2.491-.023,3.753-.079a.63.63,0,0,1,.26.566.709.709,0,0,1-.192.532l-.7.125c-1.093.175-1.229.334-1.229,2.8v9.37a4.406,4.406,0,0,0,.425,2.491c.323.442.764.634,2.565.634,2.338,0,3-.125,4.45-3.137a.534.534,0,0,1,.447-.2.785.785,0,0,1,.668.357,16.569,16.569,0,0,1-1.093,4.416l-.022.045Z" transform="translate(-250.845 -184.987)" fill="#fff"/>
          </g>
        </g>
        <g id="그룹_637" data-name="그룹 637" transform="translate(41.903)">
          <g id="그룹_636" data-name="그룹 636">
            <path id="패스_3996" data-name="패스 3996" d="M263.059,203.336a7.359,7.359,0,0,1-5.1-1.517c-1.3-1.138-1.9-3.074-1.9-6.115v-6.692c0-2.457-.141-2.582-1.24-2.8l-.629-.142a.7.7,0,0,1-.221-.594.555.555,0,0,1,.243-.47c1.268.039,2.536.062,3.754.062,1.245,0,2.485-.023,3.708-.079a.625.625,0,0,1,.238.549.648.648,0,0,1-.187.515l-.646.119c-1.081.2-1.217.374-1.217,2.842V195.2c0,3.142.3,6.494,4.1,6.494,2.751,0,4.15-2.208,4.15-6.584v-3.233a18.918,18.918,0,0,0-.368-4.874c-.215-.521-.776-.668-1.421-.793l-.674-.142a.883.883,0,0,1-.062-1.042c1.449.017,2.435.04,3.482.04.929,0,1.874-.023,2.836-.079a.891.891,0,0,1,.068,1.064l-.493.119c-.64.164-1.11.312-1.33.832a19.462,19.462,0,0,0-.368,4.874v2.995c0,2.378-.2,4.818-1.654,6.511A6.735,6.735,0,0,1,263.059,203.336Z" transform="translate(-253.971 -184.987)" fill="#fff"/>
          </g>
        </g>
        <g id="그룹_639" data-name="그룹 639" transform="translate(63.148)">
          <g id="그룹_638" data-name="그룹 638">
            <path id="패스_3997" data-name="패스 3997" d="M276.009,202.991c-1.121-.062-1.914-.079-3.958-.079-1.755,0-2.893.017-4.274.079a.708.708,0,0,1-.3-.623.479.479,0,0,1,.193-.47l.719-.1c.849-.107.849-.283.849-.283,0-.193-.091-.436-.713-1.546-.368-.679-2.2-3.708-2.593-4.218-.549,1.053-1.84,3.125-2.819,5.1a1.633,1.633,0,0,0-.226.679c0,.074.147.221.736.266l.662.091a.682.682,0,0,1,.221.679.532.532,0,0,1-.272.419c-1.155-.062-2.446-.079-3.521-.079-.832,0-1.9.017-2.655.079a.659.659,0,0,1-.329-.561.5.5,0,0,1,.17-.476l.623-.1c1.5-.2,2.055-1,2.887-2.2.736-1.025,2.061-3,3.153-4.716a1.83,1.83,0,0,0,.34-.793c0-.034-.017-.255-.4-.793-.3-.487-.7-1.127-1.144-1.846-.8-1.274-1.715-2.768-2.486-3.918a2.9,2.9,0,0,0-2.2-1.415l-.436-.079a.716.716,0,0,1-.232-.64.534.534,0,0,1,.232-.447c.855.039,2.457.062,4,.062,2.056,0,3.069-.023,3.861-.079a.493.493,0,0,1,.294.374.9.9,0,0,1-.119.708l-.611.142c-.623.125-.793.255-.793.317a2.213,2.213,0,0,0,.391,1c.685,1.257,1.449,2.48,2.242,3.691l.736-1.387c.566-.889,1.1-1.7,1.625-2.644a1.358,1.358,0,0,0,.277-.77.8.8,0,0,0-.441-.187l-.81-.136a.706.706,0,0,1-.2-.662.507.507,0,0,1,.255-.43c.832.045,1.766.068,2.955.068,1.217,0,2.14-.023,2.944-.079a.573.573,0,0,1,.289.374.925.925,0,0,1-.119.708l-.866.142a2.1,2.1,0,0,0-1.4.64,45.757,45.757,0,0,0-3.771,4.835c-.419.6-.487.8-.487.861a1.823,1.823,0,0,0,.334.787c1.914,3.108,3.148,5.112,4.065,6.562.895,1.432,1.518,1.761,2.424,1.885l.8.113a.665.665,0,0,1,.187.589.6.6,0,0,1-.232.487l-.017.023Z" transform="translate(-257.723 -184.987)" fill="#fff"/>
          </g>
        </g>
        <g id="그룹_641" data-name="그룹 641" transform="translate(0 26.773)">
          <g id="그룹_640" data-name="그룹 640">
            <path id="패스_3998" data-name="패스 3998" d="M257.047,208a1.5,1.5,0,0,1-.707-.17c-.719-2.349-2.361-6.131-3.811-9.483-.628-1.449-1.223-2.791-1.659-3.861.017,1.71-.04,2.757-.056,4.144-.034,1.732-.045,4.41-.045,6.024,0,1.291.119,1.625,1.087,1.789l1,.164a.813.813,0,0,1-.022,1.081c-.991-.04-2.078-.062-3.046-.062-.81,0-1.846.023-2.859.085a.526.526,0,0,1-.345-.5c-.034-.221.017-.5.187-.595l.481-.1c1.245-.221,1.308-.317,1.461-1.982.113-1.11.221-2.955.345-5.039l.063-1.138c.1-1.795.181-3.974.181-5.4,0-1.472-.532-1.863-1.506-2.038l-.555-.1a.867.867,0,0,1-.193-.8.405.405,0,0,1,.249-.306c.883.051,1.987.074,3.221.074h.017c.826,0,1.563,0,2.48-.074a13.8,13.8,0,0,0,1.568,4.71l2.2,4.914c.227.544,1.013,2.061,1.37,2.729.187-.645.589-1.461,1.268-3.046l1.291-2.944a32.611,32.611,0,0,0,2.333-6.307c.861.011,2.8.017,2.8.017.849,0,2-.023,2.916-.074a.49.49,0,0,1,.294.385.842.842,0,0,1-.141.679l-.793.17c-1.025.187-1.478.5-1.478,1.846,0,5.475.051,8.334.2,11.776.063,1.274.176,1.806,1.076,1.931l.8.108a.809.809,0,0,1,.209.759.4.4,0,0,1-.227.323c-1.211-.04-2.3-.062-3.544-.062-1.138,0-2.531.023-3.754.085a.571.571,0,0,1-.334-.493.666.666,0,0,1,.2-.6l.81-.119c1.087-.159,1.087-.4,1.087-2.032l-.045-6.969v-3.046l-.759,2c-1.619,3.669-3.3,7.462-4.716,11.3A.879.879,0,0,1,257.047,208Z" transform="translate(-246.569 -189.716)" fill="#fff"/>
          </g>
        </g>
        <g id="그룹_643" data-name="그룹 643" transform="translate(27.052 26.773)">
          <g id="그룹_642" data-name="그룹 642">
            <path id="패스_3999" data-name="패스 3999" d="M260.437,208.054a7.309,7.309,0,0,1-5.09-1.517c-1.313-1.132-1.908-3.068-1.908-6.109v-6.692c0-2.463-.147-2.587-1.229-2.814l-.64-.141a.658.658,0,0,1-.221-.583.571.571,0,0,1,.243-.476c1.268.045,2.542.068,3.753.068,1.246,0,2.491-.023,3.7-.074a.585.585,0,0,1,.238.538.685.685,0,0,1-.176.515l-.651.125c-1.042.2-1.217.3-1.217,2.842v6.182c0,3.148.317,6.5,4.1,6.5,2.757,0,4.161-2.225,4.161-6.579v-3.244a18.883,18.883,0,0,0-.374-4.863c-.221-.538-.781-.679-1.421-.81l-.679-.141a.862.862,0,0,1-.045-1.042c1.432.028,2.423.051,3.47.051.928,0,1.868-.023,2.825-.074a.852.852,0,0,1,.073,1.053l-.492.125c-.64.158-1.1.3-1.319.838a18.57,18.57,0,0,0-.374,4.863v3c0,2.383-.2,4.824-1.647,6.511A6.781,6.781,0,0,1,260.437,208.054Z" transform="translate(-251.348 -189.716)" fill="#fff"/>
          </g>
        </g>
        <g id="그룹_645" data-name="그룹 645" transform="translate(49.085 26.773)">
          <g id="그룹_644" data-name="그룹 644">
            <path id="패스_4000" data-name="패스 4000" d="M270.1,208c-.045,0-.045,0-.278-.334-.317-.487-1-1.506-1.845-2.616l-6.534-8.521a26.077,26.077,0,0,0-2.094-2.548c.011.221.011.662.011,1.647v5.192a18.053,18.053,0,0,0,.385,4.863c.209.549.8.708,1.4.815l.708.108a.906.906,0,0,1,.057,1.07c-1.438-.028-2.457-.051-3.465-.051-.94,0-1.879.023-2.842.085a.884.884,0,0,1-.068-1.082l.481-.113c.691-.136,1.138-.317,1.331-.832a19.015,19.015,0,0,0,.357-4.863v-6.805a6.269,6.269,0,0,0-.176-2.236c-.176-.362-.453-.719-1.387-.861l-.713-.1a.86.86,0,0,1-.142-.815.392.392,0,0,1,.244-.289c1.217.051,2.485.074,3.521.074.861,0,1.591-.023,2.123-.074.34,1.206,1.9,3.159,4.048,5.848L267.977,199c.906,1.121,1.529,1.9,2.038,2.44a7.788,7.788,0,0,1-.045-1.149v-3.691a18.481,18.481,0,0,0-.385-4.863c-.221-.555-.81-.719-1.4-.81l-.685-.1a.9.9,0,0,1-.04-1.081c1.426.028,2.412.051,3.448.051.946,0,1.863-.023,2.848-.074a.875.875,0,0,1,.056,1.076l-.492.1c-.736.119-1.127.362-1.308.838a18.644,18.644,0,0,0-.374,4.863V203c0,1.738,0,3.42.045,4.3A1.937,1.937,0,0,1,270.1,208Z" transform="translate(-255.239 -189.716)" fill="#fff"/>
          </g>
        </g>
        <g id="그룹_647" data-name="그룹 647" transform="translate(71.983 26.773)">
          <g id="그룹_646" data-name="그룹 646">
            <path id="패스_4001" data-name="패스 4001" d="M266.866,207.793c-.64,0-1.308-.045-1.919-.1-.538-.023-1.036-.062-1.461-.062-1.223,0-2.513.023-3.963.085a.726.726,0,0,1-.238-.623c.006-.113.028-.379.192-.47l.8-.158c1.093-.164,1.229-.34,1.229-2.78v-9.472c0-2.6-.068-2.978-1.144-3.1l-.476-.051a.722.722,0,0,1-.243-.753c.045-.215.159-.34.3-.351,2.021-.13,4.076-.238,6.811-.238a16.841,16.841,0,0,1,5.956.883,8.222,8.222,0,0,1,5.208,7.836,8.723,8.723,0,0,1-4.6,8.085A13.526,13.526,0,0,1,266.866,207.793Zm-.13-16.684c-.753,0-1.144.164-1.257.311a3.71,3.71,0,0,0-.158,1.512V202.7c0,1.376.034,2.389.492,2.944a2.529,2.529,0,0,0,2.038.742c4.286,0,5.815-3.963,5.815-7.671C273.666,193.809,271.209,191.109,266.736,191.109Z" transform="translate(-259.284 -189.716)" fill="#fff"/>
          </g>
        </g>
        <g id="그룹_649" data-name="그룹 649" transform="translate(95.76 26.773)">
          <g id="그룹_648" data-name="그룹 648">
            <path id="패스_4002" data-name="패스 4002" d="M271.378,207.714c-1.37-.062-2.6-.085-3.8-.085-1.217,0-2.491.023-3.861.085a.6.6,0,0,1-.232-.549.667.667,0,0,1,.169-.544l.747-.158c1.127-.2,1.263-.323,1.263-2.825v-9.851c0-2.514-.136-2.633-1.263-2.836l-.7-.13a.637.637,0,0,1-.22-.549.666.666,0,0,1,.169-.543c1.433.04,2.706.062,3.924.062,1.195,0,2.457-.023,3.833-.074a.6.6,0,0,1,.238.555.7.7,0,0,1-.181.527l-.753.153c-1.11.2-1.251.323-1.251,2.836v9.851c0,2.5.142,2.627,1.251,2.825l.708.147a.627.627,0,0,1,.215.509.733.733,0,0,1-.2.566l-.023.028Z" transform="translate(-263.484 -189.716)" fill="#fff"/>
          </g>
        </g>
      </g>
    </g>
  </g>
</svg>
